<svg version="1.1" id="Layer_1" xmlns="http://www.w3.org/2000/svg" xmlns:xlink="http://www.w3.org/1999/xlink" x="0px" y="0px"
	 width="100%" viewBox="0 0 752 1024" enable-background="new 0 0 752 1024" xml:space="preserve">
<path fill="#000000" opacity="1.000000" stroke="none" 
	d="
M246.329147,879.298950 
	C245.142105,896.316223 243.726898,912.832275 241.663422,929.333069 
	C240.365891,939.708923 239.289154,950.490723 242.631073,961.029724 
	C244.433685,966.714417 243.274948,972.632324 241.489716,978.232605 
	C239.412018,984.750366 234.022903,986.874390 227.880508,987.330688 
	C215.819473,988.226868 203.960205,986.468506 192.170380,984.132202 
	C190.145233,983.730957 188.418198,982.686523 186.983765,981.269470 
	C179.471207,973.848572 169.757019,972.446228 159.951477,971.428345 
	C156.818787,971.103149 153.599243,971.125854 150.461975,971.429260 
	C142.413895,972.207703 136.803085,968.769470 132.449478,962.207275 
	C126.348099,953.010498 120.216087,943.575073 117.085419,933.164062 
	C114.744072,925.377869 111.863014,917.847656 109.244736,910.195557 
	C108.978920,909.418701 108.712540,908.542053 108.808563,907.755981 
	C111.158264,888.522461 106.094910,868.657349 112.939659,849.918091 
	C115.976624,841.603638 113.281891,832.984863 116.173920,824.875061 
	C117.005669,822.542603 117.470360,820.086304 118.638542,817.848877 
	C121.187096,812.967346 122.946480,807.858337 123.598152,802.322632 
	C124.286888,796.472046 128.199188,793.417847 133.573486,791.754517 
	C136.263275,790.922119 138.962631,789.936951 141.428009,788.598083 
	C148.393997,784.814941 151.400284,777.913635 149.179810,769.917908 
	C147.300247,763.149719 147.568497,756.825684 150.797821,750.556885 
	C154.021927,744.298279 152.979828,738.370605 150.394653,731.883911 
	C145.974747,720.793762 137.354507,712.694397 131.436172,702.826172 
	C124.057899,690.523560 117.196152,677.868347 112.453552,664.024475 
	C108.455643,652.354431 111.128769,641.370056 112.203865,630.102295 
	C112.500069,626.997803 114.724251,624.238647 117.252235,622.273621 
	C122.385971,618.283264 126.091194,612.784363 131.509796,609.104248 
	C133.783951,607.559753 134.433716,605.138977 132.639282,603.027832 
	C124.019051,592.886047 130.441223,584.324280 135.016602,575.283020 
	C140.082764,565.272034 148.741623,558.280396 155.512039,549.715881 
	C157.736038,546.902588 158.305862,544.180237 157.018311,540.931335 
	C153.750443,532.685547 154.501190,524.762085 158.333084,516.790161 
	C162.149078,508.851349 162.902695,500.531433 162.170975,491.568604 
	C161.366165,481.710449 162.568741,471.651245 165.240570,461.954926 
	C166.264923,458.237457 165.717850,454.851898 164.269760,451.285065 
	C159.406769,439.306824 158.164856,426.478668 156.010239,413.876862 
	C155.830734,412.826996 156.324402,411.575806 156.756363,410.520935 
	C161.346161,399.311859 161.364471,388.017334 157.397003,376.670074 
	C156.591431,374.366119 156.016052,371.848145 157.149246,369.856384 
	C161.529572,362.157349 161.586502,353.594635 162.576660,345.214783 
	C163.123245,340.589111 164.588058,336.898804 169.632828,335.475098 
	C172.969421,334.533447 173.072128,331.519073 172.559875,328.874207 
	C171.651093,324.182037 172.740646,320.007935 174.816605,315.888153 
	C176.339508,312.865997 177.260406,309.865021 175.723450,306.347168 
	C174.183960,302.823486 176.895599,301.197815 179.641037,300.057037 
	C181.476913,299.294189 183.626038,299.155609 185.308228,298.176392 
	C190.720093,295.025940 195.467285,291.650330 194.655777,283.931732 
	C193.991470,277.613342 196.926529,272.630341 203.346054,270.336273 
	C208.998154,268.316467 210.559845,263.118530 211.746948,258.241730 
	C213.155838,252.453766 213.564056,246.412674 215.246994,240.652512 
	C216.110641,237.696487 215.007233,235.054077 214.261230,232.354919 
	C213.191086,228.482864 214.020996,225.389450 217.726120,223.476349 
	C225.980637,219.214249 233.006546,213.017563 241.758270,209.351196 
	C247.347809,207.009598 253.277527,206.320038 258.760468,203.902588 
	C268.062866,199.801117 275.927216,187.043167 275.415588,177.114059 
	C274.903412,167.172821 275.920685,157.272430 278.977295,147.782608 
	C280.347656,143.528122 278.855957,139.532928 279.299805,135.437119 
	C281.177246,118.111618 285.951355,101.177826 286.279083,83.634430 
	C286.312042,81.870293 286.938416,79.986626 287.746490,78.389709 
	C291.683136,70.609871 291.452606,62.688461 288.959229,54.605644 
	C287.433136,49.658337 289.050018,46.606937 293.250977,43.718758 
	C299.088074,39.705727 304.337616,40.083275 310.879883,42.658123 
	C320.341095,46.381783 329.783325,50.226818 338.676971,54.973866 
	C347.110291,59.475224 355.911896,63.674595 363.148071,70.232147 
	C366.605042,73.364960 371.120667,74.880974 374.624603,78.119560 
	C381.744171,84.700005 381.943451,88.399818 374.540497,94.667946 
	C368.154053,100.075386 362.189392,105.790619 358.785583,113.690277 
	C357.079071,117.650856 355.076080,121.482887 353.249664,125.392883 
	C351.933167,128.211227 351.182251,131.431839 352.495850,134.137115 
	C356.772552,142.944733 354.921753,151.772507 352.915588,160.495529 
	C350.799377,169.697052 354.856384,176.504089 360.847198,182.339767 
	C370.730988,191.967575 380.939240,201.230606 391.860870,209.761963 
	C398.603790,215.029160 401.330719,223.425293 403.006470,231.651016 
	C404.885742,240.875626 409.771820,247.306870 417.404114,252.813721 
	C425.425720,258.601501 434.559174,262.959290 441.254883,270.625366 
	C443.558838,273.263275 444.807983,276.185883 445.869080,279.329559 
	C446.508881,281.225037 446.264221,283.040649 444.569550,284.282471 
	C439.802917,287.775421 437.948425,293.068268 436.400269,298.291473 
	C433.287720,308.792847 426.427155,317.070953 420.479767,325.826691 
	C416.039581,332.363525 413.385559,339.290955 412.249176,346.961700 
	C411.758392,350.274597 412.468445,353.291199 414.719421,355.803223 
	C420.867981,362.664825 425.198792,370.097260 424.892944,379.865662 
	C424.689911,386.350311 427.067261,392.626984 428.329895,398.986237 
	C429.306122,403.902710 428.535828,408.602234 426.893982,413.152710 
	C423.070557,423.749634 422.927582,433.959656 429.312561,443.723053 
	C431.614166,447.242432 432.956787,451.084839 433.740814,455.276215 
	C435.041077,462.227264 438.889496,468.182831 442.158569,474.332184 
	C445.610687,480.825806 450.255371,486.419830 455.091705,491.934235 
	C459.180817,496.596558 461.701050,502.015839 458.916260,508.433441 
	C457.545166,511.593262 455.400604,513.662903 451.615265,513.248779 
	C446.456940,512.684387 442.627563,514.938416 439.599243,518.936279 
	C436.803253,522.627441 432.988068,525.005371 428.855835,526.879944 
	C424.609772,528.806091 423.692566,531.565674 424.983398,536.161011 
	C426.841583,542.776184 430.574188,548.589417 432.274689,555.247925 
	C433.555237,560.262207 433.583649,565.024048 432.026001,569.970459 
	C428.900513,579.895508 430.202118,584.018982 438.387177,590.223389 
	C443.959198,594.447083 449.810516,598.302368 455.383087,602.525391 
	C462.629547,608.017029 471.455353,608.693604 479.795349,610.770447 
	C494.189636,614.354919 509.063599,615.016113 523.641479,617.559875 
	C529.665222,618.610901 535.785156,616.530762 542.016479,617.594788 
	C551.335144,619.186035 560.787842,620.042297 570.206116,620.985229 
	C578.234558,621.788879 584.685669,625.743164 590.509766,630.839050 
	C596.340942,635.941223 602.770020,639.993591 609.780518,643.203552 
	C613.641663,644.971619 616.835938,647.492615 619.289673,651.050110 
	C620.494873,652.797485 622.032349,654.564514 623.833008,655.611328 
	C634.382935,661.744446 643.475403,669.920105 653.628174,676.584717 
	C657.297485,678.993347 657.565369,681.345215 655.866760,685.346497 
	C651.516479,695.593872 643.983521,700.591675 633.158752,702.441284 
	C626.290955,703.614685 619.791504,705.733459 612.601746,704.220459 
	C608.705994,703.400635 604.865906,706.337524 602.416687,708.808960 
	C594.863586,716.430603 585.506531,715.925903 576.131104,716.261780 
	C570.161255,716.475586 564.143799,716.703979 559.208801,720.931519 
	C557.919800,722.035767 556.552002,723.063293 555.991516,724.658508 
	C553.906128,730.593506 549.140137,733.373413 543.709717,735.517273 
	C531.953369,740.158508 520.437073,745.327209 509.049561,750.829102 
	C502.600952,753.944824 497.592163,758.584595 494.202911,764.465027 
	C487.691772,775.762207 478.527954,780.992798 465.473328,780.388245 
	C457.276825,780.008545 452.123505,785.913086 447.581940,791.627930 
	C444.044403,796.079285 440.427063,799.848328 434.768555,801.333862 
	C432.462799,801.939148 430.591492,803.578247 429.229523,805.459473 
	C423.268127,813.693481 415.717499,820.627869 410.053619,829.101318 
	C407.598145,832.774780 405.678040,836.499329 406.137024,841.165833 
	C406.382111,843.657715 406.186371,846.712524 403.878265,847.992371 
	C395.811890,852.465149 394.223724,860.750305 391.445190,868.281372 
	C388.682007,875.770813 386.515533,883.684448 382.993835,890.645081 
	C379.346649,897.853699 377.361755,904.809753 376.767395,912.698242 
	C376.358368,918.126892 367.480957,923.256104 360.134857,923.035645 
	C347.232483,922.648315 334.674103,920.582275 323.005920,914.653503 
	C322.708954,914.502563 322.415314,914.289551 322.099091,914.240112 
	C309.449463,912.261658 300.853607,904.932434 294.902466,893.929016 
	C294.048950,892.350952 292.737671,890.992737 292.167847,889.220825 
	C290.541473,884.163452 289.669617,878.914246 288.126312,873.814148 
	C286.857941,869.622864 288.014862,865.041260 290.280029,861.274048 
	C296.353516,851.173035 297.748505,839.665588 300.637726,828.602722 
	C303.319031,818.335876 307.714996,809.102173 315.137787,801.239319 
	C321.828979,794.151489 326.933624,786.066650 327.792297,775.851562 
	C328.166382,771.401062 329.274841,766.991089 330.298706,762.620972 
	C332.310242,754.035339 341.128876,750.655945 348.142853,756.005859 
	C352.092651,759.018555 355.405701,762.853516 359.117706,766.193481 
	C365.343170,771.794922 366.894470,771.727905 373.273468,766.434814 
	C376.777710,763.527161 379.490601,759.936584 382.151886,756.340820 
	C384.740601,752.843079 387.277496,749.498474 391.064240,747.075989 
	C394.533844,744.856384 395.597900,741.017700 395.712616,737.038940 
	C395.952484,728.720642 399.519836,721.593384 403.865295,714.849182 
	C405.430267,712.420227 407.587708,710.313477 410.797699,709.455750 
	C414.174957,708.553284 416.730835,705.803650 417.818512,702.759705 
	C419.843201,697.093262 424.009033,694.922363 429.290375,693.627808 
	C435.490448,692.108032 440.472839,688.861267 443.998199,683.300171 
	C447.507019,677.765320 445.542511,671.440063 439.297363,669.338562 
	C430.199280,666.276978 421.882294,654.993835 421.774750,645.467346 
	C421.739014,642.299744 421.511475,639.187012 421.016083,636.036743 
	C420.146637,630.507751 418.800781,624.881653 422.275269,619.549500 
	C422.977234,618.472229 422.951050,616.490662 422.511017,615.177124 
	C420.990295,610.637207 420.670502,606.169067 421.696564,601.459473 
	C422.376831,598.336792 420.890747,596.174500 417.454498,596.152954 
	C410.004639,596.106262 402.663818,595.505371 398.234406,604.024536 
	C395.064423,610.121338 389.769440,611.763306 383.764801,609.485352 
	C377.918030,607.267395 372.595612,608.986084 367.356567,610.777344 
	C363.391357,612.132996 359.638153,613.584412 355.323456,613.538574 
	C349.846954,613.480408 341.712341,620.531250 339.467560,625.342651 
	C336.618134,631.450134 335.764435,637.630188 335.900269,644.222656 
	C335.979370,648.062500 334.830017,651.790710 332.755798,655.138245 
	C331.292938,657.499023 330.722351,660.071228 331.250092,662.805786 
	C331.883423,666.087646 332.364868,670.209473 336.019318,670.861816 
	C339.310455,671.449341 342.671326,668.746033 344.056610,665.860840 
	C348.191376,657.248901 356.866364,653.459717 363.250153,647.335571 
	C367.124634,643.618591 373.686066,645.036011 378.946381,646.882751 
	C387.070160,649.734741 391.683350,656.111145 394.962280,663.694214 
	C396.674530,667.654053 398.073334,671.735107 400.721252,675.285522 
	C402.699799,677.938416 400.737366,680.281494 399.270294,682.531860 
	C394.839752,689.327881 388.253479,693.915161 382.161041,698.944580 
	C378.737396,701.770813 374.682953,702.434814 369.971771,701.154785 
	C361.296082,698.797668 353.249451,694.650696 344.364655,692.896179 
	C326.684631,689.404724 309.651947,690.860962 293.215637,698.463989 
	C289.883331,700.005493 287.817810,702.153137 287.953522,706.085449 
	C288.139465,711.473816 286.024963,715.134094 280.534912,717.043518 
	C270.335327,720.590942 265.329681,728.343201 264.270081,738.872314 
	C264.203339,739.535461 264.159454,740.202759 264.053711,740.859863 
	C260.823029,760.940063 257.464813,781.000854 254.428162,801.110291 
	C253.585587,806.690002 254.122650,812.392456 254.492050,818.060364 
	C255.203049,828.968811 256.403259,839.813782 251.976349,850.530823 
	C248.284653,859.467896 247.850723,869.321777 246.329147,879.298950 
M417.851196,290.474823 
	C418.827087,287.997345 419.762238,285.502716 420.793671,283.048615 
	C421.440216,281.510254 421.682007,280.152466 419.907471,279.224365 
	C415.291534,276.810211 411.745911,272.955933 407.619751,269.885040 
	C396.584808,261.672333 386.495636,252.658722 384.204773,237.729401 
	C383.074707,230.365082 379.115479,224.279358 372.973541,219.460770 
	C362.221344,211.025269 352.748932,201.125549 343.008606,191.570251 
	C337.141632,185.814713 333.767212,178.722656 333.956329,170.112610 
	C334.110016,163.114777 334.096283,156.129547 335.249359,149.202469 
	C335.496613,147.717041 335.476685,146.293198 335.094940,144.774124 
	C330.188385,125.248756 336.127747,108.406403 348.454010,93.449699 
	C353.452789,87.384117 353.689423,86.860199 347.025055,82.899094 
	C336.744781,76.788773 326.216492,71.152107 315.358063,66.144669 
	C313.460358,65.269524 311.565186,64.035858 309.056519,64.622360 
	C308.880188,65.216034 308.485413,65.851517 308.547150,66.439011 
	C310.001099,80.271057 304.641510,93.214111 303.007965,106.654541 
	C300.833679,124.544098 299.466003,142.590088 296.090485,160.315979 
	C294.331665,169.552200 294.215759,178.768417 294.279877,188.051224 
	C294.302673,191.351807 293.018036,194.166107 291.687866,197.063995 
	C287.732361,205.681488 280.167236,211.157837 273.951752,217.816788 
	C270.723297,221.275620 266.517883,223.200165 262.194763,224.024261 
	C252.656113,225.842606 244.355499,230.074356 236.452545,235.398743 
	C235.042725,236.348587 233.514603,237.279617 233.782181,239.258789 
	C234.678818,245.891022 231.923904,252.077057 231.488235,258.473572 
	C230.775604,268.936310 226.818710,277.451813 218.694611,283.862762 
	C214.557938,287.127106 212.363480,290.779938 213.121399,296.134491 
	C213.452011,298.470154 211.852936,300.205505 210.336243,301.777679 
	C207.561462,304.653961 204.931091,307.719238 201.871155,310.261078 
	C193.797195,316.967896 191.333160,326.026672 191.070450,335.847351 
	C190.945587,340.515259 189.820938,344.130615 186.147476,347.211273 
	C183.561600,349.379883 180.488007,351.530212 180.338150,355.552612 
	C179.905884,367.156189 177.279922,378.595490 178.105606,390.317535 
	C178.560928,396.781860 178.034409,403.309937 178.142120,409.806122 
	C178.208755,413.824280 175.283096,417.318787 176.392838,421.494904 
	C178.100342,427.920380 178.952118,434.687958 181.503693,440.747528 
	C185.343338,449.866058 185.234711,459.376495 183.363251,468.227783 
	C180.601593,481.289307 180.207108,494.271088 180.346451,507.408661 
	C180.405640,512.989075 179.744995,518.347656 177.247162,523.426331 
	C175.367844,527.247437 175.349564,531.171631 175.649338,535.503418 
	C176.312851,545.091553 178.430069,555.264648 170.229843,563.254944 
	C167.965012,565.461731 165.927170,567.906189 163.615402,570.059265 
	C158.137222,575.161316 155.000565,581.850403 151.169479,588.070129 
	C150.270782,589.529236 149.653290,591.232239 150.402969,592.838501 
	C153.009521,598.423218 151.596741,604.334961 152.057266,610.091736 
	C152.373566,614.045593 151.163254,617.120483 148.142075,619.803406 
	C143.910721,623.560913 140.330048,628.126038 135.831116,631.489868 
	C129.060928,636.551941 128.819382,644.064758 129.882355,650.463867 
	C132.585999,666.739685 141.321671,680.837585 149.882004,694.584045 
	C155.883804,704.221802 164.167007,712.251526 168.490219,723.244019 
	C172.807938,734.222595 171.835464,745.098877 170.067032,756.000488 
	C169.386536,760.195496 167.906815,764.249756 168.074722,768.646240 
	C168.252625,773.305115 168.026962,777.978271 168.143112,782.641052 
	C168.252518,787.033142 166.874023,790.993408 164.124756,794.189880 
	C160.881119,797.961182 157.670532,802.589233 153.399155,804.473145 
	C144.920090,808.212708 141.243927,814.391846 138.306717,822.727600 
	C135.554581,830.538330 133.048004,838.061829 133.312088,846.392212 
	C133.400742,849.188721 133.468399,851.972351 132.631577,854.793457 
	C126.790199,874.485840 123.830238,894.218384 132.653381,913.923584 
	C132.855927,914.376099 133.128418,914.862244 133.126434,915.331726 
	C133.089447,924.106262 137.595352,931.330261 141.608109,938.520447 
	C151.250076,955.797241 148.137650,953.513367 166.254501,953.680237 
	C166.421112,953.681763 166.587799,953.678528 166.754395,953.680847 
	C177.832764,953.835022 188.260559,955.898071 196.700867,963.840210 
	C198.077744,965.135864 199.793594,965.841858 201.615784,966.145691 
	C207.353134,967.102478 213.094101,968.050964 218.855118,968.847473 
	C222.376083,969.334290 223.976944,968.185120 223.512924,964.075867 
	C221.864227,949.475281 222.863480,934.838562 223.303513,920.201355 
	C223.584946,910.839294 226.763687,901.975708 226.931168,892.556519 
	C227.268738,873.573975 229.293869,854.749939 235.880447,836.721436 
	C237.120438,833.327515 237.108185,829.898560 236.683304,826.376343 
	C235.401749,815.752258 235.160950,804.991821 236.491623,794.473694 
	C239.175446,773.259827 243.143066,752.210938 246.020523,731.017822 
	C247.218460,722.194763 251.654144,715.816833 257.327545,709.431885 
	C262.022095,704.148621 270.590454,701.890259 270.888916,692.904968 
	C270.918915,692.001648 272.376770,691.189209 273.068604,690.257874 
	C281.540894,678.852356 294.800934,676.537048 307.161438,673.199280 
	C311.876526,671.926025 312.846008,670.642944 312.847412,666.295593 
	C312.849365,660.195679 311.114807,653.725586 314.003113,648.043152 
	C316.999268,642.148499 317.869080,636.175537 317.785736,629.728821 
	C317.695557,622.751221 320.122833,615.905029 324.107758,610.715820 
	C330.482819,602.414185 338.741241,595.883789 350.124084,595.247192 
	C351.910004,595.147400 353.754181,594.566162 355.404785,593.832703 
	C362.552429,590.656128 370.044708,589.353516 377.785126,589.850586 
	C381.987457,590.120483 385.326111,588.987183 387.822083,585.623047 
	C391.094910,581.211853 395.746094,578.162842 400.869690,578.337708 
	C409.441742,578.630249 412.532593,575.758118 412.541901,566.982056 
	C412.546143,562.980957 413.267273,559.172241 411.179413,555.651733 
	C405.315979,545.765076 405.778015,534.921814 406.081177,524.077515 
	C406.129822,522.337280 406.766510,520.770325 408.001862,519.583069 
	C412.532623,515.228638 416.406464,510.208954 422.468506,507.518829 
	C427.219116,505.410675 430.234741,501.068909 433.412872,497.610474 
	C425.284180,485.217316 417.209290,473.625122 414.595032,459.276886 
	C414.222595,457.232910 412.929169,455.299652 411.826202,453.456207 
	C407.985809,447.037628 406.485229,440.202454 405.748657,432.674927 
	C404.356293,418.445679 411.447052,404.573730 406.919067,390.372467 
	C406.771210,389.908844 406.900024,389.361206 406.775513,388.885284 
	C405.329620,383.359283 407.250885,376.903442 402.573944,372.292053 
	C395.152985,364.975098 392.335480,356.223450 393.701111,345.979248 
	C393.897583,344.505524 393.593689,342.968414 393.755829,341.486267 
	C394.764496,332.265991 397.593323,323.856628 403.040558,316.087494 
	C408.548126,308.232269 414.714447,300.634766 417.851196,290.474823 
M414.414062,741.173340 
	C414.255035,746.716553 414.014374,752.187439 409.452332,756.341431 
	C403.526855,761.736938 398.735443,768.188538 393.285309,774.016357 
	C385.445679,782.399353 378.318146,791.808167 364.189606,789.554504 
	C358.306915,788.616150 353.258575,787.415466 348.981903,783.348450 
	C348.410889,782.805359 347.914185,782.012146 346.208618,782.554443 
	C345.866516,793.832153 340.190796,803.028625 332.551788,811.221375 
	C326.064575,818.178894 321.900940,826.394043 319.312836,835.451904 
	C316.128021,846.598083 315.409210,858.498535 309.038544,868.669617 
	C307.907257,870.475769 308.075226,872.573120 308.619751,874.505310 
	C311.386780,884.323792 315.596924,892.795654 327.115356,894.752991 
	C329.515259,895.160767 331.711487,896.660461 334.062958,897.481079 
	C340.018768,899.559814 345.942932,901.784790 352.021179,903.428223 
	C354.246674,904.029907 358.101776,905.082397 358.567627,901.185120 
	C359.385651,894.341370 362.102539,888.513855 364.838257,882.250061 
	C368.721863,873.357910 372.486298,864.142944 375.162903,854.742004 
	C376.945984,848.479248 379.883850,843.505493 384.506195,839.232117 
	C386.374481,837.505005 387.899139,835.614685 387.708130,832.779785 
	C387.350403,827.471741 389.641357,823.002319 392.755157,819.014526 
	C398.693787,811.409058 404.641510,803.791077 410.991302,796.533386 
	C414.919434,792.043457 418.661530,786.778015 424.004333,784.268311 
	C430.310577,781.305908 434.892548,776.740173 439.456879,771.968872 
	C445.833862,765.302551 452.851959,760.782410 462.698822,761.779358 
	C466.988708,762.213684 471.894928,761.223206 474.406769,757.456177 
	C478.825470,750.829285 484.939850,745.910950 490.103424,740.063843 
	C494.898224,734.634338 501.210663,731.534485 507.638672,728.916260 
	C516.884094,725.150574 525.671021,720.305420 535.222961,717.277954 
	C537.081970,716.688721 538.042358,715.053894 539.191589,713.618530 
	C547.132385,703.701355 556.432007,696.967163 570.175232,697.690552 
	C578.373047,698.122009 586.553223,697.099426 593.316895,690.743591 
	C597.876770,686.458618 604.024353,684.955811 610.540222,685.705078 
	C616.227783,686.359131 621.642639,684.993225 628.148499,682.498047 
	C617.564941,676.787964 609.779968,669.075500 601.519958,661.939758 
	C600.904785,661.408325 600.083923,661.097900 599.329346,660.747986 
	C593.244934,657.926636 587.891357,654.047241 582.575867,649.972717 
	C578.017761,646.478821 574.045471,641.713135 567.980286,640.690491 
	C558.311707,639.060303 548.588074,636.508789 538.895325,636.542419 
	C521.315308,636.603455 504.025635,634.496826 486.804871,631.767517 
	C471.617676,629.360535 455.945221,627.967834 442.899139,618.308350 
	C442.614105,618.097351 441.992493,618.340942 441.306396,618.387512 
	C440.938812,625.093445 439.471771,631.693909 440.291077,638.320801 
	C441.043213,644.404419 443.112427,649.374573 449.971130,651.968872 
	C455.840027,654.188782 461.336914,659.054504 462.741821,665.207703 
	C465.566772,677.580383 466.921661,690.050476 455.776337,700.247681 
	C449.895752,705.627869 442.568451,708.629333 436.673248,713.211121 
	C427.592010,720.269409 416.949036,727.306702 414.414062,741.173340 
M362.570984,674.554993 
	C361.115417,678.498657 364.955719,677.730164 366.519012,678.756653 
	C369.761230,680.885620 373.022339,681.775818 376.185333,678.109070 
	C379.320129,674.474976 376.222076,671.980896 374.952026,669.210083 
	C373.564972,666.184082 371.617401,666.012085 369.229950,668.489258 
	C367.295319,670.496521 365.050720,672.205078 362.570984,674.554993 
z"/>
</svg>