<?xml version="1.0" encoding="UTF-8" standalone="no"?>
<!-- Created with Inkscape (http://www.inkscape.org/) -->

<svg
   width="9.1870003in"
   height="8.5in"
   viewBox="0 0 233.35027 215.90043"
   version="1.1"
   id="svg1"
   inkscape:version="1.4.3 (0d15f75, 2025-12-25)"
   sodipodi:docname="W7VMI_New_logo.svg"
   xml:space="preserve"
   inkscape:export-filename="W7VMI_New_logo.png"
   inkscape:export-xdpi="96"
   inkscape:export-ydpi="96"
   xmlns:inkscape="http://www.inkscape.org/namespaces/inkscape"
   xmlns:sodipodi="http://sodipodi.sourceforge.net/DTD/sodipodi-0.dtd"
   xmlns="http://www.w3.org/2000/svg"
   xmlns:svg="http://www.w3.org/2000/svg"><sodipodi:namedview
     id="namedview1"
     pagecolor="#ffffff"
     bordercolor="#111111"
     borderopacity="1"
     inkscape:showpageshadow="0"
     inkscape:pageopacity="0"
     inkscape:pagecheckerboard="1"
     inkscape:deskcolor="#d1d1d1"
     inkscape:document-units="in"
     inkscape:zoom="2.0000001"
     inkscape:cx="420.99998"
     inkscape:cy="416.74998"
     inkscape:window-width="3675"
     inkscape:window-height="2126"
     inkscape:window-x="3034"
     inkscape:window-y="-11"
     inkscape:window-maximized="1"
     inkscape:current-layer="layer1"
     showgrid="true"
     inkscape:clip-to-page="false"><inkscape:grid
       id="grid2"
       units="in"
       originx="-30.071844"
       originy="-2.4077003"
       spacingx="2.54"
       spacingy="2.54"
       empcolor="#00e55a"
       empopacity="0.6"
       color="#0099e5"
       opacity="0.14901961"
       empspacing="10"
       enabled="true"
       visible="true" /></sodipodi:namedview><defs
     id="defs1"><rect
       x="80.610168"
       y="104.6518"
       width="949.64435"
       height="279.30716"
       id="rect4" /><linearGradient
       id="swatch2"
       inkscape:swatch="solid"><stop
         style="stop-color:#000000;stop-opacity:1;"
         offset="0"
         id="stop2" /></linearGradient><clipPath
       clipPathUnits="userSpaceOnUse"
       id="clipPath41"><rect
         style="fill:none;fill-opacity:0.943038;stroke:#e224e1;stroke-width:0.633468;stroke-linejoin:round;stroke-miterlimit:0;stroke-dasharray:none;stroke-opacity:0.837553"
         id="rect42"
         width="246.46088"
         height="217.88588"
         x="-7.5413928"
         y="-15.082016"
         ry="8.2941456"
         inkscape:label="clip-border layer" /></clipPath><clipPath
       clipPathUnits="userSpaceOnUse"
       id="clipPath42"><rect
         style="fill:none;fill-opacity:0.943038;stroke:#e224e1;stroke-width:0.633468;stroke-linejoin:round;stroke-miterlimit:0;stroke-dasharray:none;stroke-opacity:0.837553"
         id="rect43"
         width="246.46088"
         height="217.88588"
         x="21.695065"
         y="-1.7205577"
         ry="8.2941456"
         inkscape:label="clip-border layer" /></clipPath><clipPath
       clipPathUnits="userSpaceOnUse"
       id="clipPath43"><rect
         style="fill:none;fill-opacity:0.943038;stroke:#e224e1;stroke-width:0.633468;stroke-linejoin:round;stroke-miterlimit:0;stroke-dasharray:none;stroke-opacity:0.837553"
         id="rect44"
         width="246.46088"
         height="217.88588"
         x="1.5867323"
         y="-7.4090991"
         ry="8.2941456"
         inkscape:label="clip-border layer" /></clipPath></defs><g
     inkscape:label="Layer 1"
     inkscape:groupmode="layer"
     id="layer1"
     transform="translate(-30.071844,-2.4077003)"><g
       id="g14"
       inkscape:label="Circles"
       style="display:inline;fill:#c5c5c5;fill-opacity:0.16345274;stroke:#888888;stroke-opacity:0.83471072"
       transform="translate(23.28334,8.3343799)"
       clip-path="url(#clipPath43)"><circle
         style="fill:#c5c5c5;fill-opacity:0.16345274;stroke:#888888;stroke-width:1.79917;stroke-miterlimit:0;stroke-opacity:0.83471072"
         id="path11"
         cx="127.66144"
         cy="102.12915"
         r="104.51041" /><circle
         style="fill:#c5c5c5;fill-opacity:0.16345274;stroke:#888888;stroke-width:1.79917;stroke-miterlimit:0;stroke-opacity:0.83471072"
         id="path12"
         cx="127"
         cy="102.12915"
         r="83.343742" /><circle
         style="fill:#c5c5c5;fill-opacity:0.16345274;stroke:#888888;stroke-width:1.79917;stroke-miterlimit:0;stroke-opacity:0.83471072"
         id="path13"
         cx="126.8677"
         cy="102.26145"
         r="62.441662" /></g><path
       id="text4"
       style="font-size:212.763px;writing-mode:lr-tb;direction:ltr;white-space:pre;shape-inside:url(#rect4);display:inline;fill:#292929;fill-opacity:1;stroke:none;stroke-width:1.84388;stroke-miterlimit:0"
       d="m 30.071844,44.181972 c 2.997136,15.094997 5.994273,30.189997 8.991408,45.284997 0.166733,0.141518 0.318491,0.334922 0.494173,0.445432 2.740486,0 5.480972,0 8.221458,0 0.153128,-0.157015 0.341896,-0.285503 0.472893,-0.460233 2.334643,-10.572814 4.669285,-21.145625 7.003929,-31.718439 2.344807,10.582585 4.689614,21.165172 7.034423,31.747757 0.165349,0.137444 0.316881,0.323744 0.490791,0.430915 2.680436,0 5.360876,0 8.041313,0 0.15308,-0.161344 0.34464,-0.292933 0.474796,-0.472005 3.046546,-15.085366 6.093093,-30.170735 9.139639,-45.256101 -0.15632,-0.239076 -0.31264,-0.478149 -0.46896,-0.717225 -2.55184,0 -5.103681,0 -7.655521,0 -0.153842,0.165409 -0.346262,0.302065 -0.476683,0.484928 -1.778126,9.731208 -3.556253,19.462417 -5.334382,29.193625 -2.034259,-9.746501 -4.068518,-19.493004 -6.102779,-29.239508 -0.166261,-0.139278 -0.317638,-0.330609 -0.492721,-0.439045 -3.006119,0 -6.012238,0 -9.018359,0 -0.15312,0.156837 -0.341911,0.285078 -0.472904,0.459651 -2.122296,9.588832 -4.244588,19.177666 -6.366881,28.7665 -1.750276,-9.590089 -3.500549,-19.180175 -5.250824,-28.770264 -0.167342,-0.14522 -0.319602,-0.34193 -0.496105,-0.455887 -2.586419,0 -5.172839,0 -7.759259,0 -0.156482,0.2383 -0.312963,0.476603 -0.469445,0.714902 z m 137.196596,0.0604 c 4.48709,15.095 8.97418,30.19 13.46127,45.284997 0.16138,0.122122 0.31025,0.291661 0.4792,0.385035 2.69766,0 5.39533,0 8.09299,0 0.14994,-0.141446 0.33283,-0.252726 0.46281,-0.412447 4.49285,-15.08567 8.98569,-30.171336 13.47853,-45.257003 -0.15149,-0.258628 -0.30298,-0.517254 -0.45447,-0.775881 -2.68884,0 -5.37768,0 -8.06652,0 -0.15125,0.145648 -0.33535,0.262337 -0.46611,0.426043 -2.92129,10.616731 -5.84259,21.233465 -8.76389,31.850197 -3.02225,-10.627885 -6.0445,-21.25577 -9.06675,-31.883655 -0.16198,-0.124839 -0.31142,-0.296682 -0.48113,-0.392585 -2.74049,0 -5.48097,0 -8.22146,0 -0.15149,0.258433 -0.30298,0.516866 -0.45447,0.775299 z m 38.81417,-0.195132 c 0,15.095 0,30.19 0,45.284997 0.17161,0.186009 0.32348,0.429343 0.50721,0.580167 2.34671,0 4.69342,0 7.04012,0 0.15469,-0.206356 0.35706,-0.388969 0.48249,-0.609901 0,-10.3094 0,-20.618804 0,-30.928205 2.16643,10.366547 4.33286,20.733094 6.49929,31.099641 0.16595,0.1402 0.31809,0.328683 0.49273,0.438465 2.43219,0 4.86438,0 7.29657,0 0.15363,-0.159206 0.34282,-0.290522 0.47404,-0.467295 2.17312,-10.362164 4.34622,-20.724328 6.51933,-31.086492 0,10.324541 0,20.649082 0,30.97362 0.17162,0.186009 0.32348,0.429343 0.50722,0.580167 2.34654,0 4.69309,0 7.03963,0 0.1547,-0.206356 0.35706,-0.388969 0.48249,-0.609901 0,-15.085086 0,-30.170173 0,-45.255263 -0.17161,-0.186009 -0.32348,-0.429342 -0.50721,-0.580167 -3.79368,0 -7.58736,0 -11.38104,0 -0.15312,0.157387 -0.3419,0.286342 -0.47283,0.461414 -2.09527,9.579727 -4.19055,19.159457 -6.28582,28.739184 -2.12151,-9.589893 -4.24303,-19.179789 -6.36454,-28.769682 -0.1655,-0.137468 -0.31723,-0.323694 -0.49128,-0.430916 -3.7853,0 -7.57061,0 -11.35592,0 -0.16083,0.193389 -0.32165,0.386778 -0.48248,0.580167 z m 43.69794,0 c 0,15.095 0,30.19 0,45.284997 0.17161,0.186009 0.32348,0.429343 0.50721,0.580167 2.52637,0 5.05274,0 7.57912,0 0.1547,-0.206356 0.35705,-0.388969 0.48249,-0.609901 0,-15.085086 -2e-5,-30.170173 0,-45.255263 -0.17164,-0.186009 -0.32349,-0.429342 -0.50722,-0.580167 -2.52638,0 -5.05275,0 -7.57912,0 -0.16082,0.193389 -0.32165,0.386778 -0.48248,0.580167 z M 81.77159,44.664572 c 0,2.687511 0,5.37502 0,8.062528 0.171612,0.186009 0.323478,0.429342 0.507212,0.580167 5.134556,0 10.269115,0 15.403671,0 -3.765682,5.926588 -6.604533,12.676126 -8.501846,19.769158 -1.398345,5.247703 -2.24386,10.723989 -2.348019,16.238968 0.171525,0.192018 0.323209,0.44049 0.507212,0.597008 2.312416,0 4.624832,0 6.937248,0 0.15469,-0.20544 0.357073,-0.386882 0.482602,-0.606996 -0.0089,-3.585573 0.416619,-7.153821 1.049855,-10.651387 0.07673,-0.396842 0.15998,-0.864313 0.24701,-1.286469 0.11746,-0.592875 0.243567,-1.200303 0.369316,-1.761948 1.186753,-5.351378 2.987533,-10.503985 5.337549,-15.267379 0.77284,-1.58763 1.5979,-3.139395 2.48936,-4.63479 0.13518,-0.217188 0.30455,-0.505649 0.45834,-0.746693 0.78964,-1.261615 1.63884,-2.472128 2.57373,-3.582202 0.0826,-0.226647 0.17361,-0.451272 0.13958,-0.70561 0,-2.001452 0,-4.002903 0,-6.004355 -0.17161,-0.186009 -0.32348,-0.42934 -0.50721,-0.580167 -8.221042,0 -16.442085,0 -24.663126,0 -0.160828,0.193389 -0.321656,0.386778 -0.482484,0.580167 z"
       inkscape:label="W7 VMI"
       clip-path="url(#clipPath42)"
       transform="translate(2.1166708,0.52916772)" /><g
       id="g35"
       inkscape:label="Vashon-Maury Island"
       transform="matrix(0.81165127,0,0,1,50.901817,13.890626)"
       clip-path="url(#clipPath41)"><path
         fill="#000000"
         opacity="1"
         stroke="none"
         d="m 95.126005,161.75243 c -0.264683,3.13768 -0.580265,6.18294 -1.040383,9.22537 -0.289339,1.91312 -0.529424,3.90109 0.215769,5.84428 0.401948,1.04815 0.143648,2.1393 -0.254509,3.17189 -0.463287,1.20176 -1.66497,1.5934 -3.034632,1.67752 -2.689403,0.16524 -5.333831,-0.15897 -7.962769,-0.58974 -0.451573,-0.074 -0.836683,-0.26655 -1.156515,-0.52783 -1.675188,-1.36828 -3.841297,-1.62685 -6.027769,-1.81452 -0.698545,-0.0599 -1.416444,-0.0558 -2.11601,1.6e-4 -1.79458,0.14353 -3.04571,-0.49041 -4.01649,-1.70036 -1.36051,-1.69572 -2.727847,-3.43543 -3.425932,-5.35503 -0.522081,-1.43563 -1.164511,-2.82407 -1.748344,-4.23497 -0.05927,-0.14324 -0.118665,-0.30488 -0.09727,-0.44981 0.523947,-3.54631 -0.605099,-7.20907 0.921168,-10.66423 0.677194,-1.53303 0.07631,-3.12219 0.721187,-4.61748 0.185466,-0.43006 0.289088,-0.88296 0.549565,-1.29549 0.568284,-0.90008 0.960606,-1.84209 1.105913,-2.86275 0.153585,-1.07875 1.025958,-1.64189 2.224338,-1.94857 0.599783,-0.15348 1.201698,-0.33513 1.751426,-0.58199 1.553309,-0.69755 2.223657,-1.97002 1.72853,-3.44429 -0.419111,-1.24792 -0.359297,-2.41395 0.360794,-3.56981 0.718922,-1.15396 0.486552,-2.24692 -0.08989,-3.44296 -0.985574,-2.04481 -2.907748,-3.53817 -4.22743,-5.3577 -1.645244,-2.26837 -3.175294,-4.60175 -4.232817,-7.15431 -0.891468,-2.15174 -0.295405,-4.17706 -0.05567,-6.25462 0.06605,-0.57241 0.562006,-1.08116 1.125703,-1.44346 1.144733,-0.73575 1.970947,-1.74965 3.179205,-2.4282 0.507092,-0.28477 0.651984,-0.73111 0.251858,-1.12037 -1.922175,-1.86996 -0.490136,-3.44859 0.530105,-5.11563 1.129667,-1.84584 3.060445,-3.13496 4.570142,-4.71411 0.495911,-0.51872 0.622973,-1.020673 0.33587,-1.619702 -0.728681,-1.520368 -0.561264,-2.981311 0.293175,-4.451191 0.850915,-1.463762 1.018954,-2.997812 0.855787,-4.650379 -0.179456,-1.817665 0.08871,-3.672398 0.684476,-5.460225 0.228415,-0.685432 0.106477,-1.309664 -0.216479,-1.967319 -1.084366,-2.208568 -1.361295,-4.573839 -1.841731,-6.89738 -0.03998,-0.193578 0.07005,-0.424271 0.166365,-0.618769 1.023455,-2.06675 1.027543,-4.14925 0.142907,-6.241475 -0.179619,-0.424806 -0.307925,-0.889074 -0.05524,-1.256317 0.976748,-1.41956 0.98944,-2.998366 1.210228,-4.543456 0.121879,-0.852888 0.448508,-1.533312 1.573406,-1.795818 0.744008,-0.173623 0.766917,-0.729418 0.652695,-1.217083 -0.202647,-0.865148 0.04028,-1.634776 0.503198,-2.394387 0.339602,-0.55723 0.544929,-1.110554 0.202218,-1.759181 -0.343275,-0.649702 0.26138,-0.949445 0.873573,-1.159784 0.409352,-0.140655 0.888574,-0.166207 1.263673,-0.346756 1.206762,-0.580885 2.265316,-1.203285 2.084363,-2.626452 -0.148135,-1.164994 0.506338,-2.083767 1.937783,-2.506751 1.260312,-0.372415 1.608563,-1.330818 1.87326,-2.23001 0.31416,-1.067193 0.405191,-2.181059 0.780453,-3.243125 0.192578,-0.545037 -0.05346,-1.032249 -0.219811,-1.529924 -0.238633,-0.713935 -0.05346,-1.284303 0.772605,-1.637044 1.840635,-0.785851 3.407302,-1.928405 5.358799,-2.604417 1.246361,-0.431747 2.56859,-0.558889 3.791198,-1.004623 2.074293,-0.756235 3.827911,-3.108564 3.713821,-4.939308 -0.11418,-1.83298 0.11255,-3.658429 0.79421,-5.408177 0.30557,-0.784448 -0.0271,-1.521088 0.0718,-2.27628 0.41864,-3.194501 1.48319,-6.316779 1.55626,-9.551457 0.007,-0.325274 0.14705,-0.672588 0.3272,-0.967029 0.87781,-1.434458 0.82643,-2.89502 0.27043,-4.3853415 -0.34028,-0.9121921 0.0203,-1.4748137 0.957,-2.00734 1.30158,-0.7399284 2.47213,-0.6703154 3.93095,-0.1955617 2.1097,0.6865742 4.21517,1.3955273 6.1983,2.2707959 1.8805,0.8299663 3.84312,1.6042523 5.45665,2.8133443 0.77086,0.577632 1.77777,0.857157 2.55909,1.454292 1.58754,1.213313 1.63199,1.89549 -0.0188,3.051217 -1.42406,0.997031 -2.75408,2.050816 -3.51307,3.507365 -0.38053,0.730259 -0.82718,1.436813 -1.23443,2.157744 -0.29356,0.519652 -0.461,1.113472 -0.16808,1.612275 0.95363,1.623962 0.54093,3.25164 0.0936,4.860004 -0.47189,1.69659 0.43277,2.951682 1.76862,4.027673 2.20392,1.775189 4.48019,3.483121 6.91555,5.056145 1.50356,0.971174 2.11161,2.519266 2.48529,4.035937 0.41903,1.700847 1.50855,2.886649 3.21043,3.902011 1.7887,1.067159 3.82529,1.870655 5.31834,3.284138 0.51374,0.486381 0.79228,1.025256 1.02889,1.604892 0.14261,0.349491 0.0881,0.684256 -0.28979,0.913225 -1.06287,0.644035 -1.4764,1.619938 -1.82162,2.583001 -0.69404,1.936259 -2.22383,3.462589 -3.55,5.076985 -0.99009,1.20527 -1.58189,2.482561 -1.83529,3.896904 -0.10944,0.610836 0.0489,1.167042 0.55083,1.630213 1.37102,1.265152 2.33672,2.635556 2.26852,4.436667 -0.0453,1.195649 0.48484,2.352956 0.76639,3.525484 0.21768,0.906508 0.0459,1.77301 -0.32019,2.612033 -0.85256,1.953877 -0.88444,3.836414 0.5393,5.6366 0.51323,0.648909 0.81261,1.35738 0.98744,2.130194 0.28994,1.281643 1.14806,2.379737 1.87703,3.51356 0.76976,1.197311 1.80544,2.228746 2.88386,3.245503 0.91181,0.859646 1.47378,1.858859 0.85282,3.042145 -0.30572,0.582619 -0.78393,0.964218 -1.628,0.887857 -1.15023,-0.104045 -2.00412,0.31154 -2.67938,1.048669 -0.62346,0.68058 -1.47419,1.119037 -2.39561,1.464667 -0.9468,0.355152 -1.15133,0.863966 -0.86349,1.711259 0.41436,1.219714 1.24666,2.291573 1.62585,3.519273 0.28553,0.92453 0.29187,1.80254 -0.0555,2.71456 -0.69693,1.82999 -0.4067,2.59029 1.41843,3.73426 1.24249,0.77877 2.54724,1.48962 3.78982,2.26826 1.61585,1.01256 3.58386,1.1373 5.44354,1.52024 3.20969,0.66091 6.52633,0.78282 9.77699,1.25185 1.34318,0.19379 2.70782,-0.18976 4.09731,0.006 2.07791,0.29339 4.18571,0.45126 6.28582,0.62513 1.79023,0.14817 3.22871,0.87727 4.52739,1.81686 1.30025,0.94075 2.73384,1.68793 4.29707,2.27978 0.86097,0.32601 1.57323,0.79082 2.12038,1.44676 0.26874,0.32219 0.61156,0.648 1.01309,0.841 2.35245,1.13084 4.37994,2.63827 6.64383,3.86711 0.8182,0.44412 0.87794,0.87775 0.49917,1.61552 -0.97004,1.88942 -2.64976,2.81093 -5.06351,3.15195 -1.5314,0.21636 -2.98068,0.60702 -4.58388,0.32806 -0.86869,-0.15117 -1.72496,0.39035 -2.27109,0.84603 -1.68422,1.40529 -3.7707,1.31223 -5.86127,1.37417 -1.33116,0.0394 -2.67297,0.0815 -3.7734,0.861 -0.28743,0.20361 -0.59242,0.39306 -0.7174,0.68719 -0.465,1.0943 -1.52773,1.60686 -2.73864,2.00216 -2.62146,0.85576 -5.18941,1.80877 -7.72865,2.82321 -1.43793,0.57449 -2.55481,1.42997 -3.31056,2.51422 -1.45188,2.08299 -3.49525,3.04742 -6.40623,2.93595 -1.82767,-0.07 -2.97679,1.01868 -3.98949,2.07239 -0.7888,0.82074 -1.59541,1.51568 -2.85717,1.78959 -0.51415,0.11161 -0.93142,0.41382 -1.23511,0.76069 -1.32929,1.5182 -3.01297,2.79676 -4.27592,4.35912 -0.54753,0.67731 -0.97568,1.36405 -0.87333,2.22447 0.0546,0.45946 0.0104,1.0227 -0.50366,1.25868 -1.79868,0.8247 -2.15281,2.35232 -2.77238,3.74093 -0.61616,1.3809 -1.09923,2.84003 -1.88451,4.12345 -0.81327,1.32913 -1.25587,2.61169 -1.3884,4.06618 -0.0912,1.00095 -2.07072,1.94668 -3.70878,1.90603 -2.87702,-0.0714 -5.67735,-0.45235 -8.27915,-1.54551 -0.0663,-0.0277 -0.13166,-0.067 -0.20221,-0.0762 -2.82067,-0.36479 -4.73739,-1.71616 -6.06441,-3.74499 -0.19032,-0.29096 -0.48271,-0.54139 -0.60977,-0.8681 -0.36265,-0.93249 -0.55706,-1.90034 -0.9012,-2.8407 -0.28283,-0.7728 -0.0249,-1.61756 0.48025,-2.31217 1.35427,-1.86243 1.66534,-3.98419 2.30959,-6.02398 0.59789,-1.89302 1.57812,-3.59555 3.23328,-5.04532 1.49204,-1.30686 2.63028,-2.79756 2.82174,-4.68103 0.0834,-0.82058 0.33059,-1.63371 0.5589,-2.43947 0.44854,-1.58304 2.41496,-2.20613 3.97896,-1.2197 0.88073,0.55548 1.61949,1.26258 2.44722,1.8784 1.38817,1.0328 1.73408,1.02045 3.15649,0.0446 0.78139,-0.53612 1.38632,-1.19816 1.97974,-1.86115 0.57724,-0.64492 1.14292,-1.26161 1.9873,-1.70826 0.77367,-0.40926 1.01095,-1.11704 1.03652,-1.85064 0.0535,-1.53374 0.84895,-2.84788 1.81792,-4.09139 0.34896,-0.44785 0.83003,-0.8363 1.54582,-0.99445 0.75307,-0.1664 1.32298,-0.67338 1.56551,-1.23463 0.45148,-1.04478 1.3804,-1.44505 2.55804,-1.68375 1.38252,-0.28022 2.49351,-0.87887 3.27961,-1.90422 0.78241,-1.02053 0.34435,-2.18678 -1.0482,-2.57427 -2.02873,-0.56449 -3.88328,-2.6449 -3.90726,-4.40141 -0.007,-0.58405 -0.0588,-1.15797 -0.16916,-1.73883 -0.19389,-1.01943 -0.49399,-2.05679 0.28076,-3.03994 0.15653,-0.19864 0.1507,-0.564 0.0526,-0.80619 -0.33908,-0.83707 -0.4104,-1.66091 -0.1816,-2.52928 0.15169,-0.57576 -0.17968,-0.97445 -0.94592,-0.97842 -1.6612,-0.009 -3.29807,-0.11939 -4.28576,1.45138 -0.70685,1.12413 -1.88755,1.42688 -3.22648,1.00687 -1.30375,-0.40896 -2.49055,-0.092 -3.65876,0.23822 -0.88418,0.24996 -1.7211,0.51756 -2.6832,0.50912 -1.22117,-0.0103 -3.03506,1.28932 -3.53561,2.17645 -0.63537,1.12611 -0.82574,2.2656 -0.79544,3.48113 0.0175,0.708 -0.23865,1.39541 -0.70117,2.01262 -0.3262,0.4353 -0.45342,0.90956 -0.33575,1.41376 0.14128,0.60511 0.24859,1.36511 1.06346,1.48539 0.73386,0.10829 1.48329,-0.39012 1.79219,-0.92209 0.92199,-1.58789 2.85636,-2.28654 4.27984,-3.41573 0.86395,-0.68533 2.32706,-0.42399 3.50001,-0.0835 1.81146,0.52585 2.84013,1.70154 3.57128,3.09973 0.3818,0.73011 0.69372,1.48258 1.28416,2.13722 0.44119,0.48914 0.003,0.92117 -0.32354,1.33609 -0.98794,1.25306 -2.45657,2.09887 -3.8151,3.02621 -0.76341,0.52109 -1.66747,0.64352 -2.718,0.40751 -1.93454,-0.4346 -3.7288,-1.19923 -5.70996,-1.52274 -3.94236,-0.64376 -7.74037,-0.37525 -11.40541,1.0266 -0.74305,0.28424 -1.20362,0.68022 -1.17335,1.40526 0.0415,0.99352 -0.43004,1.6684 -1.65424,2.02046 -2.27435,0.65409 -3.390522,2.08346 -3.626786,4.02483 -0.01496,0.12228 -0.02458,0.24531 -0.04828,0.36648 -0.720387,3.70241 -1.469223,7.40125 -2.146339,11.10906 -0.187883,1.0288 -0.06797,2.08022 0.01481,3.12528 0.158531,2.01131 0.426161,4.01092 -0.560953,5.98694 -0.823207,1.64784 -0.919955,3.46471 -1.259246,5.30432 M 133.37309,53.183995 c 0.21761,-0.456801 0.42613,-0.916765 0.65613,-1.369256 0.14424,-0.283646 0.19809,-0.533996 -0.19761,-0.705121 -1.02928,-0.445125 -1.81989,-1.155782 -2.73996,-1.721998 -2.46062,-1.514272 -4.71034,-3.176215 -5.22116,-5.928905 -0.252,-1.357844 -1.13482,-2.47994 -2.50437,-3.368397 -2.39757,-1.555351 -4.50978,-3.380677 -6.68171,-5.142496 -1.30823,-1.061215 -2.06068,-2.368859 -2.0185,-3.956392 0.0344,-1.290271 0.0312,-2.578219 0.28833,-3.855443 0.0552,-0.273886 0.0507,-0.536415 -0.0345,-0.816506 -1.09409,-3.600115 0.2303,-6.705533 2.97885,-9.463273 1.11465,-1.118381 1.16741,-1.214982 -0.31863,-1.945336 -2.29233,-1.126631 -4.63997,-2.165927 -7.06122,-3.089207 -0.42316,-0.161359 -0.84575,-0.388824 -1.40515,-0.280685 -0.0392,0.109465 -0.12736,0.226634 -0.11358,0.334957 0.3242,2.550373 -0.8709,4.936832 -1.23514,7.414999 -0.48484,3.298504 -0.7898,6.62585 -1.54249,9.894176 -0.39218,1.702989 -0.41803,3.402288 -0.40374,5.113867 0.006,0.608565 -0.28137,1.127471 -0.57796,1.661788 -0.88202,1.588906 -2.56892,2.598643 -3.95487,3.826432 -0.7199,0.637743 -1.657642,0.992594 -2.621625,1.144542 -2.126969,0.33527 -3.977867,1.115526 -5.740088,2.097244 -0.314382,0.175134 -0.655124,0.346798 -0.595458,0.71172 0.199937,1.222861 -0.414358,2.363452 -0.511506,3.542851 -0.158916,1.929135 -1.041241,3.499237 -2.852777,4.681297 -0.922398,0.601885 -1.411734,1.275399 -1.242718,2.26268 0.07375,0.430653 -0.282854,0.750619 -0.621049,1.040499 -0.618738,0.530333 -1.205266,1.095514 -1.88758,1.564182 -1.800355,1.236612 -2.349801,2.906885 -2.408386,4.717635 -0.02784,0.860676 -0.278618,1.527281 -1.097738,2.095297 -0.576606,0.399852 -1.26197,0.796333 -1.29538,1.537988 -0.09641,2.139485 -0.681943,4.248683 -0.497822,6.410007 0.101591,1.191906 -0.01599,2.395563 0.0089,3.593337 0.01481,0.740875 -0.637516,1.3852 -0.390056,2.155197 0.380741,1.184737 0.570667,2.432554 1.139632,3.549826 0.856172,1.681284 0.831945,3.434831 0.414655,5.066849 -0.615821,2.408306 -0.703772,4.801898 -0.672703,7.224229 0.01333,1.028925 -0.13417,2.016955 -0.691095,2.953351 -0.419053,0.704552 -0.42314,1.428102 -0.356277,2.22681 0.147943,1.76787 0.620041,3.6436 -1.208465,5.11686 -0.50502,0.40689 -0.959422,0.85759 -1.474911,1.25459 -1.221556,0.94072 -1.920974,2.17406 -2.775236,3.32086 -0.200397,0.26904 -0.338092,0.58304 -0.170927,0.8792 0.581227,1.02972 0.266194,2.11973 0.36888,3.18119 0.07049,0.72901 -0.199345,1.29596 -0.873025,1.79065 -0.943516,0.69281 -1.741948,1.53453 -2.745144,2.15476 -1.509638,0.93335 -1.563499,2.31858 -1.326465,3.49846 0.602863,3.00096 2.550776,5.60035 4.459592,8.13495 1.338297,1.77702 3.185315,3.25754 4.149326,5.28436 0.962783,2.02426 0.745934,4.02963 0.351612,6.0397 -0.151748,0.77347 -0.481694,1.52101 -0.444257,2.33163 0.03969,0.85902 -0.01037,1.72066 0.01525,2.58038 0.02443,0.80982 -0.282986,1.54003 -0.896038,2.1294 -0.723275,0.69535 -1.439176,1.54868 -2.391622,1.89604 -1.890705,0.68951 -2.710417,1.82883 -3.365378,3.36579 -0.613674,1.44016 -1.172598,2.82734 -1.113717,4.36331 0.0197,0.51562 0.0348,1.02887 -0.151749,1.54903 -1.302532,3.63092 -1.962543,7.26924 0.0044,10.90252 0.04517,0.0834 0.105885,0.17306 0.105441,0.25963 -0.0089,1.61786 0.996503,2.94982 1.891282,4.27556 2.149997,3.18553 1.455984,2.76442 5.495739,2.79519 0.03717,2.9e-4 0.07434,-3.2e-4 0.111512,1.1e-4 2.470303,0.0284 4.795521,0.40882 6.677577,1.8732 0.307022,0.23889 0.689629,0.36907 1.095946,0.42509 1.279327,0.17641 2.559468,0.35129 3.844082,0.49816 0.785118,0.0897 1.142091,-0.12213 1.03862,-0.8798 -0.367636,-2.69208 -0.144833,-5.39082 -0.04665,-8.08965 0.06264,-1.72619 0.771553,-3.36047 0.808902,-5.09719 0.07523,-3.50004 0.526847,-6.97083 1.995538,-10.29495 0.2765,-0.62579 0.273775,-1.25802 0.179027,-1.90745 -0.285756,-1.95889 -0.339454,-3.94291 -0.0428,-5.88226 0.598449,-3.91145 1.483159,-7.79247 2.124792,-11.70009 0.267111,-1.62682 1.256195,-2.80279 2.52129,-3.98005 1.046795,-0.97413 2.957407,-1.39054 3.023957,-3.04725 0.006,-0.16657 0.33177,-0.31636 0.48603,-0.48808 1.88918,-2.10296 4.84596,-2.52986 7.60214,-3.14529 1.0514,-0.23476 1.26758,-0.47134 1.26789,-1.27291 4.3e-4,-1.12471 -0.38635,-2.31768 0.25771,-3.36541 0.66808,-1.08686 0.86204,-2.18817 0.84345,-3.37682 -0.0201,-1.28655 0.52113,-2.54886 1.40971,-3.50565 1.42153,-1.53068 3.26304,-2.73475 5.8012,-2.85214 0.39826,-0.0185 0.80946,-0.12556 1.17754,-0.2608 1.59381,-0.5857 3.26444,-0.82589 4.99044,-0.73423 0.93704,0.0497 1.68152,-0.15919 2.23808,-0.77948 0.72977,-0.81334 1.76691,-1.37553 2.9094,-1.34328 1.91143,0.0538 2.60064,-0.47563 2.60272,-2.09378 8.2e-4,-0.73772 0.16174,-1.43997 -0.30383,-2.0891 -1.30743,-1.82291 -1.20441,-3.822202 -1.13682,-5.821694 0.0104,-0.320867 0.15282,-0.609788 0.42828,-0.828696 1.01031,-0.802879 1.87411,-1.728401 3.22583,-2.224415 1.05931,-0.388715 1.73175,-1.189256 2.44042,-1.826923 -1.81257,-2.285067 -3.61315,-4.422453 -4.19608,-7.068003 -0.0831,-0.376869 -0.37145,-0.733328 -0.61739,-1.073229 -0.85635,-1.183461 -1.19096,-2.443743 -1.35521,-3.83168 -0.31047,-2.623609 1.27067,-5.181336 0.261,-7.799788 -0.0329,-0.08548 -0.004,-0.186455 -0.032,-0.274213 -0.32241,-1.018887 0.10603,-2.209226 -0.93688,-3.059481 -1.65475,-1.34911 -2.283,-2.962753 -1.97849,-4.851594 0.0438,-0.271728 -0.024,-0.555143 0.0118,-0.828423 0.22492,-1.700048 0.8557,-3.25058 2.07036,-4.683064 1.22809,-1.448358 2.60308,-2.849196 3.30253,-4.722502 m -0.76643,83.100465 c -0.0354,1.02207 -0.0892,2.03079 -1.10639,2.79672 -1.32128,0.99482 -2.38968,2.18438 -3.60497,3.25893 -1.74811,1.54566 -3.33744,3.28048 -6.48786,2.86494 -1.31176,-0.17302 -2.43744,-0.39439 -3.39109,-1.14428 -0.12736,-0.10015 -0.23807,-0.24639 -0.6184,-0.1464 -0.0763,2.07939 -1.34186,3.77507 -3.04525,5.28565 -1.44653,1.28284 -2.37496,2.79756 -2.95206,4.46766 -0.71017,2.05515 -0.87045,4.24938 -2.29101,6.12474 -0.25226,0.33301 -0.21479,0.71972 -0.0933,1.07598 0.61699,1.81036 1.55579,3.37241 4.12421,3.73331 0.53514,0.0752 1.02486,0.3517 1.54921,0.50301 1.32805,0.38327 2.64903,0.79352 4.00437,1.09653 0.49626,0.11092 1.35589,0.30501 1.45976,-0.41359 0.18241,-1.26184 0.78823,-2.33634 1.39825,-3.49127 0.86599,-1.63954 1.70538,-3.33861 2.30223,-5.07197 0.3976,-1.15474 1.05269,-2.0718 2.0834,-2.85974 0.4166,-0.31844 0.75657,-0.66698 0.71398,-1.18969 -0.0798,-0.97871 0.43108,-1.80278 1.1254,-2.53806 1.32421,-1.4023 2.65047,-2.80693 4.06635,-4.1451 0.87593,-0.82786 1.71035,-1.79871 2.90171,-2.26145 1.40619,-0.54622 2.42789,-1.38806 3.44567,-2.26779 1.42195,-1.22915 2.98687,-2.06257 5.18257,-1.87876 0.95656,0.0801 2.05057,-0.10256 2.61066,-0.79712 0.98531,-1.22188 2.34872,-2.12872 3.50012,-3.20683 1.06917,-1.00109 2.47673,-1.57265 3.91007,-2.05541 2.06157,-0.69432 4.02091,-1.58766 6.15084,-2.14587 0.41453,-0.10863 0.62869,-0.41008 0.88495,-0.67474 1.77066,-1.82854 3.84433,-3.0702 6.90884,-2.93682 1.82798,0.0795 3.65203,-0.10897 5.16021,-1.2809 1.01679,-0.79007 2.38759,-1.06715 3.84054,-0.92899 1.26822,0.12059 2.47565,-0.13126 3.92634,-0.59133 -2.35996,-1.05283 -4.09588,-2.47487 -5.93773,-3.79056 -0.13713,-0.098 -0.32021,-0.15522 -0.48846,-0.21975 -1.35673,-0.5202 -2.55049,-1.23549 -3.73577,-1.98676 -1.01636,-0.64421 -1.90212,-1.52291 -3.25456,-1.71146 -2.15595,-0.30058 -4.32415,-0.77103 -6.48549,-0.76483 -3.92005,0.0115 -7.77536,-0.37717 -11.61531,-0.88041 -3.38649,-0.44381 -6.8812,-0.7006 -9.79027,-2.48163 -0.0635,-0.0388 -0.20215,0.006 -0.35513,0.0146 -0.082,1.23644 -0.4091,2.45344 -0.22642,3.67532 0.16772,1.1217 0.62911,2.03812 2.1585,2.51645 1.30866,0.40932 2.53438,1.30647 2.84765,2.441 0.62992,2.28129 0.93204,4.58054 -1.55319,6.46073 -1.31127,0.992 -2.94514,1.5454 -4.25967,2.39021 -2.02498,1.30141 -4.39818,2.59897 -4.96345,5.15571 m -11.56013,-12.28318 c -0.32457,0.72714 0.53175,0.58544 0.88034,0.7747 0.72296,0.39254 1.45013,0.55668 2.15543,-0.1194 0.699,-0.67006 0.009,-1.12992 -0.27502,-1.64081 -0.30929,-0.55794 -0.74356,-0.58964 -1.27592,-0.13291 -0.43139,0.37011 -0.93191,0.68513 -1.48483,1.11842 z"
         id="path14"
         style="fill:#392c19;fill-opacity:0.943038;stroke:#787266;stroke-width:0;stroke-linejoin:round;stroke-dasharray:none;stroke-opacity:0.317511"
         inkscape:label="Vashon-Maury Shoreline" /><path
         id="path33"
         style="fill:#0a0a09;fill-opacity:0.935654;stroke:#787266;stroke-width:0;stroke-linejoin:round;stroke-miterlimit:0;stroke-dasharray:none;stroke-opacity:0.317511"
         d="m 109.39745,11.073743 c -0.40017,0.0049 -0.71167,0.351903 -0.75676,0.735014 -0.1283,0.860768 -0.10206,1.738824 -0.26214,2.596507 -0.0586,0.381031 -0.13561,0.75889 -0.21564,1.135906 -0.0456,0.192252 -0.1033,0.464646 -0.15949,0.686918 -0.58827,2.316563 -0.93266,4.684763 -1.24827,7.051053 -0.28629,2.066423 -0.62043,4.126744 -1.04865,6.168812 -0.2885,1.597255 -0.29849,3.224532 -0.39953,4.839618 -0.0167,0.435279 -0.10797,0.872265 -0.34701,1.242888 -0.62749,1.193961 -1.71788,2.032846 -2.72299,2.891827 -0.926,0.758494 -1.86853,1.57925 -3.05044,1.898293 -0.877943,0.239741 -1.780484,0.384675 -2.64709,0.668472 -1.448477,0.451922 -2.885191,1.011412 -4.148068,1.865109 -0.362188,0.221202 -0.529088,0.649967 -0.511297,1.061463 0.0062,0.575929 -0.03382,1.155856 -0.198334,1.710531 -0.309327,1.290984 -0.391539,2.657457 -0.989277,3.862957 -0.332076,0.716534 -0.985449,1.198189 -1.542746,1.729806 -0.489183,0.46246 -1.02793,0.8744 -1.48427,1.370121 -0.460333,0.541099 -0.334928,1.296471 -0.502126,1.938927 -0.170072,0.303178 -0.483791,0.494387 -0.731452,0.730891 -0.693047,0.613735 -1.453607,1.146667 -2.140003,1.767429 -0.856199,0.764736 -1.463323,1.79545 -1.712928,2.916309 -0.21585,0.802302 -0.183774,1.649754 -0.425815,2.44533 -0.113014,0.409067 -0.417253,0.729223 -0.782381,0.93069 -0.550169,0.411816 -1.140542,0.895967 -1.297935,1.600488 -0.208097,0.938104 -0.281426,1.900021 -0.401055,2.852161 -0.223057,1.919182 -0.236717,3.85332 -0.234648,5.782895 -0.02232,0.794996 0.01678,1.603708 -0.159018,2.384443 -0.15037,0.464 -0.292822,0.957596 -0.170315,1.446316 0.338363,1.651526 1.001298,3.209494 1.548091,4.797266 0.416009,1.37926 0.14465,2.836151 -0.130125,4.214376 -0.353425,1.711359 -0.562615,3.455016 -0.552392,5.204137 -0.02206,1.314934 0.05863,2.685346 -0.464521,3.92426 -0.173622,0.457857 -0.411183,0.893152 -0.568147,1.355202 -0.0618,0.377081 -0.0028,0.76541 -0.0146,1.147143 0.01672,1.190553 0.03334,2.381109 0.04998,3.571659 -0.231304,0.43511 -0.46821,0.87433 -0.828247,1.21923 -0.862361,0.89127 -1.885921,1.61182 -2.717276,2.53556 -0.680058,0.72713 -1.270304,1.53467 -1.819031,2.36375 -0.282816,0.41903 -0.448178,0.95943 -0.254432,1.45022 0.243076,0.59415 0.230685,1.25127 0.263491,1.88222 0.0051,0.62594 0.02179,1.2623 -0.111355,1.87702 -0.45089,0.54866 -1.019241,0.98761 -1.559105,1.44484 -0.662218,0.56207 -1.392859,1.03723 -2.053201,1.60076 -0.719323,0.6216 -1.290532,1.49696 -1.300623,2.47431 4.66e-4,0.90191 0.26475,1.7793 0.534384,2.63204 0.530381,1.62021 1.459108,3.06896 2.397726,4.47821 1.138785,1.68129 2.404829,3.27444 3.772013,4.7755 0.979827,1.1327 1.992429,2.32396 2.403804,3.79598 0.243297,0.80523 0.280249,1.65542 0.248658,2.49097 -0.0055,0.094 -0.01444,0.30853 -0.02708,0.44914 -0.07499,1.08592 -0.300183,2.15414 -0.571847,3.20593 -0.245978,1.37384 -0.097,2.77606 -0.208997,4.15985 -0.06212,0.71812 -0.607181,1.25647 -1.091335,1.73719 -0.720598,0.68627 -1.557342,1.24481 -2.459926,1.66232 -0.989031,0.50073 -1.853351,1.26327 -2.403544,2.23211 -0.487878,0.87416 -0.898784,1.79455 -1.215075,2.74471 -0.339056,1.01471 -0.422569,2.08654 -0.504814,3.14588 -0.06357,0.77102 -0.229301,1.53121 -0.50155,2.25558 -0.490725,1.45453 -0.800679,2.9763 -0.819256,4.51469 -0.04295,1.6034 0.104876,3.2559 0.800677,4.72313 0.273204,0.51924 0.469969,1.0976 0.538149,1.66567 0.249476,1.22409 0.954276,2.28471 1.60827,3.32628 0.559025,0.82457 1.074452,1.68162 1.691272,2.4651 0.379524,0.48674 0.946989,0.81188 1.561145,0.88212 0.933532,0.114 1.877002,0.0895 2.814815,0.14417 0.371099,0.0185 0.847664,0.047 1.211294,0.0734 1.503749,0.12884 3.065894,0.29202 4.406233,1.04298 0.67944,0.40287 1.318284,0.91771 2.108309,1.08742 1.050393,0.23941 2.126218,0.34069 3.190451,0.50006 0.512493,0.0481 1.037678,0.19201 1.549453,0.0746 0.30815,-0.10505 0.576176,-0.33852 0.743789,-0.61529 0.21721,-0.46827 0.08407,-0.99934 0.0658,-1.49344 -0.140968,-1.30918 -0.138761,-2.66617 -0.109204,-3.95687 0.02439,-0.82711 0.06148,-1.66084 0.119996,-2.46775 0.03396,-0.4962 0.0775,-0.99614 0.123915,-1.45604 0.06441,-0.59376 0.135369,-1.18742 0.24598,-1.77457 0.02976,-0.13867 0.07317,-0.36463 0.108522,-0.53692 0.226626,-1.22163 0.339722,-2.46042 0.402749,-3.70025 0.191399,-2.77296 0.64149,-5.55761 1.684001,-8.14771 0.247989,-0.63029 0.495636,-1.29162 0.42476,-1.98186 -0.07249,-1.0428 -0.165794,-2.11763 -0.19589,-3.14227 -0.04904,-1.27975 0.01423,-2.56593 0.251555,-3.82603 0.638593,-3.69478 1.311045,-7.37836 2.024499,-11.06047 0.370446,-1.78835 1.603952,-3.29087 3.085068,-4.30538 0.79732,-0.53287 1.639102,-1.07215 2.180022,-1.88487 0.13958,-0.19875 0.1867,-0.44224 0.24344,-0.66783 0.41042,-0.59632 0.98845,-1.05704 1.57016,-1.47805 0.97094,-0.66262 2.11671,-0.99507 3.23383,-1.31943 1.19453,-0.34248 2.42551,-0.54395 3.61509,-0.9029 0.43213,-0.13575 0.78457,-0.49939 0.85757,-0.95326 0.13394,-0.76626 0.0538,-1.54937 0.0591,-2.32284 0.004,-0.29845 -0.0265,-0.60438 -0.003,-0.89831 0.40369,-0.84809 0.9018,-1.68115 1.01434,-2.63157 0.20728,-1.21808 0.15841,-2.46189 0.69524,-3.60726 0.41471,-0.79263 1.08969,-1.40815 1.75799,-1.98587 1.07358,-0.90834 2.40507,-1.50262 3.7999,-1.68608 1.03666,-0.11633 2.04748,-0.3815 3.04951,-0.66221 1.28666,-0.33069 2.61789,-0.45126 3.94384,-0.44248 0.72153,-0.003 1.46199,-0.16956 2.04382,-0.61554 0.62894,-0.45068 1.14912,-1.10528 1.93359,-1.29389 0.98023,-0.25731 2.03358,-0.13957 2.98881,-0.50723 0.63722,-0.31956 0.91862,-1.04703 0.98339,-1.71953 0.066,-0.66821 0.074,-1.34624 0.004,-2.01425 -0.0778,-0.67742 -0.62633,-1.15356 -0.84941,-1.77558 -0.38569,-0.929703 -0.47144,-1.947124 -0.51907,-2.942457 -0.009,-0.231728 -0.0185,-0.538097 -0.0181,-0.79933 0.0105,-0.338344 -0.0165,-0.691412 0.0703,-1.019165 0.45399,-0.594077 1.06767,-1.042164 1.66091,-1.487855 0.6118,-0.458372 1.28504,-0.820962 1.95704,-1.180785 0.71819,-0.407995 1.39515,-0.888389 1.99382,-1.458862 0.15695,-0.119219 0.28912,-0.256585 0.34365,-0.450845 0.12975,-0.155337 0.001,-0.321003 -0.0442,-0.483359 -0.66151,-0.835311 -1.337,-1.660737 -1.94975,-2.533177 -0.11894,-0.173027 -0.2845,-0.411006 -0.41522,-0.612923 -0.69733,-1.051533 -1.26945,-2.189051 -1.64306,-3.396096 -0.21495,-0.607804 -0.51065,-1.183899 -0.87849,-1.713114 -0.70599,-1.122577 -1.08255,-2.437672 -1.1103,-3.761581 -0.0466,-1.234599 0.16901,-2.455929 0.36284,-3.669744 0.17586,-1.270223 0.24929,-2.587895 -0.10994,-3.83462 -0.18231,-0.720783 -0.20324,-1.468548 -0.35545,-2.194213 -0.15141,-0.757386 -0.73446,-1.30197 -1.23617,-1.845297 -0.54552,-0.627282 -1.11335,-1.298501 -1.31354,-2.125004 -0.0942,-0.704429 -0.0539,-1.419449 -0.0398,-2.128035 0.0125,-0.26188 0.0319,-0.592865 0.0592,-0.880613 0.0853,-1.194252 0.64795,-2.291429 1.28448,-3.282463 1.04497,-1.599634 2.50194,-2.902805 3.40483,-4.60031 0.42891,-0.813248 0.82616,-1.645217 1.17632,-2.495378 0.15721,-0.348605 0.15727,-0.819738 -0.17585,-1.067637 -1.75992,-1.212974 -3.61663,-2.292373 -5.28394,-3.636017 -1.02845,-0.837436 -2.0188,-1.836923 -2.42178,-3.134458 -0.19889,-0.670687 -0.29337,-1.380384 -0.63448,-2.002023 -0.59621,-1.14827 -1.67042,-1.930191 -2.68035,-2.690863 -2.17934,-1.561033 -4.29435,-3.214579 -6.32061,-4.970319 -0.44641,-0.39446 -0.90753,-0.793327 -1.1906,-1.327814 -0.57746,-0.973633 -0.54991,-2.146443 -0.52506,-3.239874 0.0176,-0.892799 0.11213,-1.780738 0.19817,-2.668561 0.0677,-0.703127 -0.1001,-1.393701 -0.23814,-2.07725 -0.15458,-0.928383 -0.1,-1.882844 0.0533,-2.807789 0.27785,-1.610102 1.16078,-3.039175 2.20011,-4.270693 0.51783,-0.650389 1.17188,-1.196442 1.5925,-1.920641 0.2044,-0.313673 0.14785,-0.753822 -0.14564,-0.992581 -0.56324,-0.4692 -1.25645,-0.742392 -1.90401,-1.07254 -2.16592,-1.016118 -4.35025,-2.004194 -6.60499,-2.808704 -0.30246,-0.09408 -0.60712,-0.22012 -0.92815,-0.221347 z"
         inkscape:label="vashon island" /><path
         id="path34"
         style="fill:#0a0a09;fill-opacity:0.937255;stroke:#787266;stroke-width:0;stroke-linejoin:round;stroke-miterlimit:0;stroke-dasharray:none;stroke-opacity:0.317511"
         d="m 138.70678,113.21945 c -0.32229,0.0473 -0.51659,0.35342 -0.56675,0.65454 -0.2031,1.03966 -0.22392,2.10676 -0.21086,3.16313 -0.006,0.58117 0.17351,1.14535 0.45901,1.6472 0.30792,0.63654 0.90519,1.06222 1.52815,1.35805 0.63824,0.33952 1.35809,0.5301 1.92584,0.99375 0.60026,0.41917 1.04738,1.04809 1.21721,1.76285 0.24626,0.98603 0.2283,2.01506 0.1851,3.02332 -0.0529,0.56347 -0.34956,1.07387 -0.67517,1.52372 -0.74135,0.94019 -1.80785,1.54109 -2.84023,2.10908 -1.90475,1.00366 -3.82989,2.03019 -5.45356,3.46289 -1.00575,0.8953 -1.85264,2.04552 -2.10961,3.39118 -0.14518,0.6853 -0.0849,1.47494 -0.57808,2.03381 -0.50426,0.55057 -1.11053,0.99492 -1.65255,1.50667 -1.40745,1.23457 -2.72105,2.57678 -4.21594,3.70923 -0.77589,0.59503 -1.67604,1.07315 -2.66325,1.16834 -1.19538,0.13803 -2.41166,-0.0521 -3.55456,-0.4072 -0.44815,-0.13882 -0.87447,-0.34491 -1.24157,-0.63886 -0.33564,-0.23692 -0.85458,-0.31131 -1.15299,0.0248 -0.30789,0.3102 -0.17406,0.77577 -0.31247,1.1528 -0.26496,0.91845 -0.6881,1.80807 -1.34001,2.51649 -1.10732,1.31822 -2.47492,2.41971 -3.39322,3.8927 -1.03063,1.60777 -1.42833,3.5002 -1.97692,5.30264 -0.32185,1.07703 -0.7459,2.13393 -1.38872,3.06251 -0.10596,0.18276 -0.27416,0.34332 -0.25562,0.57051 -0.05,0.18397 -0.01,0.35762 0.0685,0.52693 0.36428,1.08348 0.80651,2.19762 1.66998,2.98569 0.84855,0.8039 1.99238,1.16722 3.10421,1.43404 1.82299,0.49053 3.60483,1.13995 5.45859,1.51219 0.49748,0.0805 1.1055,0.17641 1.50392,-0.21198 0.26875,-0.31998 0.35256,-0.74843 0.49363,-1.1328 0.32659,-1.02517 0.81611,-1.9891 1.29001,-2.95215 0.83373,-1.62355 1.58363,-3.28905 2.26309,-4.98271 0.32789,-0.7922 0.73179,-1.57797 1.37905,-2.15876 0.46412,-0.47037 1.09762,-0.84904 1.29074,-1.51975 0.12823,-0.51685 0.15185,-1.05864 0.34816,-1.55921 0.15344,-0.44161 0.51334,-0.76645 0.79672,-1.12593 1.51676,-1.72558 3.13537,-3.36155 4.82581,-4.91698 0.64569,-0.59963 1.34388,-1.1547 2.14803,-1.52731 1.06989,-0.52597 2.0918,-1.15967 2.99025,-1.94674 1.07861,-0.86339 2.25047,-1.72831 3.64593,-1.96418 1.13787,-0.2278 2.34017,0.0595 3.44649,-0.34945 0.8989,-0.36622 1.52455,-1.14471 2.2283,-1.77906 0.7879,-0.74242 1.58943,-1.45543 2.42948,-2.12119 0.64356,-0.50987 1.31515,-1.0042 2.09124,-1.29288 2.13337,-0.8779 4.29948,-1.67676 6.48509,-2.41454 0.76894,-0.24926 1.5895,-0.46772 2.18819,-1.04542 0.87936,-0.83494 1.79304,-1.66927 2.90024,-2.19266 1.14831,-0.56593 2.44919,-0.70393 3.71401,-0.68537 1.65075,-0.0221 3.37325,-0.16086 4.84613,-0.97466 0.67757,-0.38371 1.2845,-0.93903 2.0739,-1.08388 1.1287,-0.21566 2.28555,-0.16873 3.42666,-0.26728 0.80368,-0.0588 1.61618,-0.13643 2.37812,-0.41625 0.19346,-0.0338 0.35074,-0.1315 0.48164,-0.27587 0.18774,-0.0974 0.0806,-0.3252 0.10569,-0.49453 -0.0543,-0.13284 -0.19324,-0.26133 -0.32535,-0.33389 -0.95932,-0.50655 -1.92914,-1.0018 -2.80974,-1.64052 -1.00751,-0.71302 -2.01488,-1.42974 -3.09096,-2.03757 -0.74561,-0.44517 -1.57213,-0.81518 -2.30869,-1.23009 -0.53852,-0.30078 -1.11525,-0.6369 -1.61179,-0.94723 -0.802,-0.50238 -1.58055,-1.04912 -2.42311,-1.48208 -0.78048,-0.23888 -1.59383,-0.35093 -2.39501,-0.50002 -1.67823,-0.29439 -3.37435,-0.48421 -5.07721,-0.55029 -2.01953,-0.0886 -4.04164,-0.13598 -6.05719,-0.29896 -0.75158,-0.0601 -1.53818,-0.13143 -2.29219,-0.21249 -2.36405,-0.26513 -4.72864,-0.53876 -7.07773,-0.91685 -1.83428,-0.31155 -3.6993,-0.68545 -5.34509,-1.59314 -0.31133,-0.14195 -0.63798,-0.32838 -0.991,-0.30834 z"
         inkscape:label="maury island" /><path
         id="path35"
         style="fill:#0a0a09;fill-opacity:0.937255;stroke:#787266;stroke-width:0;stroke-linejoin:round;stroke-miterlimit:0;stroke-dasharray:none;stroke-opacity:0.317511"
         d="m 123.11858,122.17704 c -0.5411,0.11444 -0.98527,0.47819 -1.42885,0.78858 -0.37415,0.30496 -0.80546,0.59024 -1.0277,1.03218 -0.15237,0.33832 0.0669,0.70967 0.36875,0.87623 0.58543,0.36461 1.25758,0.61653 1.94793,0.67001 0.64291,0.005 1.28739,-0.3384 1.64831,-0.87 0.25144,-0.35745 0.18664,-0.82843 -0.0119,-1.19303 -0.25924,-0.49274 -0.59904,-0.99502 -1.11205,-1.24764 -0.12124,-0.0503 -0.25382,-0.0712 -0.38447,-0.0563 z"
         inkscape:label="jenson point" /></g></g></svg>
